<mxfile host="app.diagrams.net" agent="Mozilla/5.0 (Windows NT 10.0; Win64; x64) AppleWebKit/537.36 (KHTML, like Gecko) Chrome/131.0.0.0 Safari/537.36" version="26.0.4">
  <diagram name="Halaman-1" id="KrVojMWLtOhXkP4Td5ol">
    <mxGraphModel dx="1434" dy="746" grid="1" gridSize="10" guides="1" tooltips="1" connect="1" arrows="1" fold="1" page="1" pageScale="1" pageWidth="827" pageHeight="1169" math="0" shadow="0">
      <root>
        <mxCell id="0" />
        <mxCell id="1" parent="0" />
        <mxCell id="L6fgF3WoQ910CKsVL-Oz-16" value="Database" style="swimlane;fontStyle=1;align=center;verticalAlign=top;childLayout=stackLayout;horizontal=1;startSize=26;horizontalStack=0;resizeParent=1;resizeParentMax=0;resizeLast=0;collapsible=1;marginBottom=0;whiteSpace=wrap;html=1;" vertex="1" parent="1">
          <mxGeometry x="310" y="110" width="250" height="210" as="geometry" />
        </mxCell>
        <mxCell id="L6fgF3WoQ910CKsVL-Oz-17" value="+ conn: mysqli" style="text;strokeColor=none;fillColor=none;align=left;verticalAlign=top;spacingLeft=4;spacingRight=4;overflow=hidden;rotatable=0;points=[[0,0.5],[1,0.5]];portConstraint=eastwest;whiteSpace=wrap;html=1;" vertex="1" parent="L6fgF3WoQ910CKsVL-Oz-16">
          <mxGeometry y="26" width="250" height="26" as="geometry" />
        </mxCell>
        <mxCell id="L6fgF3WoQ910CKsVL-Oz-18" value="" style="line;strokeWidth=1;fillColor=none;align=left;verticalAlign=middle;spacingTop=-1;spacingLeft=3;spacingRight=3;rotatable=0;labelPosition=right;points=[];portConstraint=eastwest;strokeColor=inherit;" vertex="1" parent="L6fgF3WoQ910CKsVL-Oz-16">
          <mxGeometry y="52" width="250" height="8" as="geometry" />
        </mxCell>
        <mxCell id="L6fgF3WoQ910CKsVL-Oz-19" value="- construct(host,username,pass,dbname)&lt;div&gt;- getLabelWaktu()&lt;/div&gt;&lt;div&gt;- getCo2IOT()&lt;/div&gt;&lt;div&gt;- getHumidityIOT()&lt;/div&gt;&lt;div&gt;- getLuxIOT()&lt;/div&gt;&lt;div&gt;- getRealTime()&lt;/div&gt;&lt;div&gt;- inputRealtimeData(co2,humidity,&lt;/div&gt;&lt;div&gt;waktu,lama_hidup)&lt;/div&gt;&lt;div&gt;- inputPeriodikData(co2, humidity, lux, waktu)&lt;/div&gt;" style="text;strokeColor=none;fillColor=none;align=left;verticalAlign=top;spacingLeft=4;spacingRight=4;overflow=hidden;rotatable=0;points=[[0,0.5],[1,0.5]];portConstraint=eastwest;whiteSpace=wrap;html=1;" vertex="1" parent="L6fgF3WoQ910CKsVL-Oz-16">
          <mxGeometry y="60" width="250" height="150" as="geometry" />
        </mxCell>
      </root>
    </mxGraphModel>
  </diagram>
</mxfile>
